<svg xmlns="http://www.w3.org/2000/svg" xmlns:xlink="http://www.w3.org/1999/xlink" width="500" zoomAndPan="magnify" viewBox="0 0 375 374.999991" height="500" preserveAspectRatio="xMidYMid meet" version="1.0"><defs><g/><clipPath id="id1"><path d="M 18 177 L 37 177 L 37 206.976562 L 18 206.976562 Z M 18 177 " clip-rule="nonzero"/></clipPath><clipPath id="id2"><path d="M 38 177 L 56.976562 177 L 56.976562 206.976562 L 38 206.976562 Z M 38 177 " clip-rule="nonzero"/></clipPath></defs><rect x="-37.5" width="450" fill="#ffffff" y="-37.499999" height="449.999989" fill-opacity="1"/><rect x="-37.5" width="450" fill="#ffffff" y="-37.499999" height="449.999989" fill-opacity="1"/><rect x="-37.5" width="450" fill="#ffffff" y="-37.499999" height="449.999989" fill-opacity="1"/><rect x="-37.5" width="450" fill="#ffffff" y="-37.499999" height="449.999989" fill-opacity="1"/><g clip-path="url(#id1)"><path fill="#058402" d="M 34.652344 198.789062 C 34.332031 197.96875 33.5625 197.460938 32.738281 197.421875 L 32.335938 196.394531 C 31.824219 195.097656 30.9375 193.980469 29.773438 193.171875 C 28.871094 192.542969 28.183594 191.683594 27.792969 190.683594 L 26.699219 187.898438 C 26.480469 187.347656 26.050781 186.917969 25.484375 186.695312 C 24.976562 186.492188 24.410156 186.488281 23.882812 186.667969 L 23.347656 180.324219 C 23.316406 178.96875 22.199219 177.910156 20.796875 177.910156 C 20.792969 177.910156 20.789062 177.910156 20.789062 177.910156 C 19.214844 177.914062 17.996094 179.246094 18.085938 180.636719 L 18.058594 193.253906 C 18.179688 195.1875 19.128906 196.992188 20.65625 198.203125 L 21.496094 198.875 C 22.230469 199.457031 22.796875 200.214844 23.132812 201.074219 L 23.1875 201.214844 C 22.652344 201.804688 22.457031 202.667969 22.769531 203.460938 L 23.917969 206.386719 C 24.082031 206.800781 24.550781 207.007812 24.96875 206.84375 C 25.382812 206.679688 25.589844 206.210938 25.425781 205.792969 L 24.277344 202.871094 C 24.160156 202.578125 24.308594 202.261719 24.585938 202.152344 L 32.429688 199.070312 C 32.71875 198.957031 33.035156 199.097656 33.152344 199.394531 L 34.472656 202.597656 C 34.640625 203.011719 35.113281 203.207031 35.527344 203.035156 C 35.941406 202.867188 36.136719 202.394531 35.96875 201.980469 Z M 22.503906 197.605469 L 21.664062 196.9375 C 20.476562 195.996094 19.769531 194.652344 19.675781 193.207031 L 19.703125 180.585938 C 19.667969 180.039062 20.171875 179.527344 20.792969 179.527344 C 20.792969 179.527344 20.796875 179.527344 20.796875 179.527344 C 21.320312 179.527344 21.71875 179.886719 21.734375 180.410156 L 22.390625 188.226562 C 22.269531 188.671875 22.285156 189.136719 22.457031 189.566406 L 24.441406 194.621094 C 24.605469 195.035156 25.078125 195.238281 25.492188 195.074219 C 25.90625 194.914062 26.113281 194.441406 25.949219 194.027344 L 23.960938 188.972656 C 23.84375 188.671875 24.050781 188.328125 24.371094 188.203125 C 24.695312 188.074219 25.074219 188.191406 25.191406 188.492188 L 26.285156 191.273438 C 26.796875 192.574219 27.683594 193.6875 28.847656 194.5 C 29.75 195.128906 30.4375 195.988281 30.828125 196.988281 L 31.160156 197.832031 L 24.605469 200.40625 C 24.160156 199.316406 23.4375 198.347656 22.503906 197.605469 Z M 22.503906 197.605469 " fill-opacity="1" fill-rule="nonzero"/></g><path fill="#058402" d="M 26.570312 202.257812 C 26.566406 202.257812 26.566406 202.257812 26.5625 202.261719 C 26.558594 202.261719 26.558594 202.261719 26.554688 202.265625 C 26.15625 202.476562 25.996094 202.964844 26.1875 203.367188 C 26.382812 203.785156 26.894531 203.960938 27.304688 203.765625 C 27.722656 203.566406 27.898438 203.019531 27.6875 202.617188 C 27.484375 202.226562 26.960938 202.058594 26.570312 202.257812 Z M 26.570312 202.257812 " fill-opacity="1" fill-rule="nonzero"/><g clip-path="url(#id2)"><path fill="#058402" d="M 54.167969 177.910156 C 54.164062 177.910156 54.160156 177.910156 54.15625 177.910156 C 52.757812 177.910156 51.636719 178.96875 51.609375 180.273438 L 51.074219 186.667969 C 49.902344 186.265625 48.679688 186.824219 48.257812 187.898438 L 47.164062 190.683594 C 46.769531 191.683594 46.085938 192.542969 45.183594 193.171875 C 44.015625 193.980469 43.128906 195.097656 42.621094 196.394531 L 42.21875 197.417969 C 41.390625 197.460938 40.625 197.96875 40.304688 198.777344 L 38.988281 201.980469 C 38.816406 202.394531 39.015625 202.867188 39.425781 203.035156 C 39.84375 203.207031 40.3125 203.011719 40.484375 202.597656 L 41.808594 199.382812 C 41.917969 199.097656 42.242188 198.957031 42.523438 199.070312 L 50.367188 202.152344 C 50.652344 202.265625 50.792969 202.585938 50.679688 202.871094 L 49.53125 205.792969 C 49.367188 206.210938 49.570312 206.679688 49.988281 206.84375 C 50.402344 207.003906 50.871094 206.800781 51.035156 206.386719 L 52.1875 203.460938 C 52.398438 202.921875 52.386719 202.332031 52.15625 201.800781 C 52.058594 201.578125 51.921875 201.386719 51.765625 201.214844 L 51.820312 201.074219 C 52.160156 200.214844 52.726562 199.457031 53.457031 198.875 L 54.300781 198.203125 C 55.828125 196.992188 56.773438 195.1875 56.898438 193.203125 L 56.867188 180.6875 C 56.960938 179.171875 55.683594 177.914062 54.167969 177.910156 Z M 53.292969 196.9375 L 52.453125 197.605469 C 51.515625 198.347656 50.796875 199.316406 50.351562 200.40625 L 43.796875 197.832031 L 44.125 196.988281 C 44.519531 195.988281 45.203125 195.128906 46.109375 194.5 C 47.273438 193.6875 48.160156 192.574219 48.667969 191.273438 L 49.765625 188.492188 C 49.867188 188.230469 50.210938 188.0625 50.585938 188.203125 C 50.910156 188.332031 51.109375 188.675781 50.992188 188.972656 L 49.007812 194.027344 C 48.84375 194.441406 49.046875 194.914062 49.460938 195.074219 C 49.878906 195.238281 50.347656 195.035156 50.511719 194.621094 L 52.5 189.566406 C 52.667969 189.132812 52.6875 188.671875 52.5625 188.226562 L 53.226562 180.359375 C 53.234375 179.882812 53.636719 179.527344 54.15625 179.527344 C 54.160156 179.527344 54.160156 179.527344 54.160156 179.527344 C 54.734375 179.527344 55.289062 179.972656 55.25 180.636719 L 55.28125 193.152344 C 55.1875 194.652344 54.480469 195.996094 53.292969 196.9375 Z M 53.292969 196.9375 " fill-opacity="1" fill-rule="nonzero"/></g><path fill="#058402" d="M 48.402344 202.265625 C 48.394531 202.261719 48.390625 202.257812 48.386719 202.257812 C 48.382812 202.253906 48.375 202.25 48.371094 202.25 C 47.960938 202.054688 47.476562 202.222656 47.269531 202.617188 C 47.054688 203.019531 47.207031 203.53125 47.621094 203.75 C 48.007812 203.953125 48.527344 203.828125 48.753906 203.398438 C 48.964844 202.996094 48.816406 202.484375 48.402344 202.265625 Z M 48.402344 202.265625 " fill-opacity="1" fill-rule="nonzero"/><path fill="#058402" d="M 49.5 172.742188 C 49.425781 172.3125 49.011719 172.011719 48.589844 172.082031 C 43.4375 172.816406 38.042969 168.296875 37.988281 168.25 C 37.679688 167.988281 37.222656 167.996094 36.921875 168.265625 C 32.1875 172.554688 26.515625 172.0625 26.414062 172.050781 C 25.980469 172.011719 25.59375 172.308594 25.53125 172.738281 C 23.144531 189.128906 37.019531 196.160156 37.160156 196.226562 C 37.402344 196.347656 37.6875 196.339844 37.925781 196.199219 C 52.003906 187.988281 49.527344 172.894531 49.5 172.742188 Z M 37.5 194.570312 C 35.421875 193.382812 25.492188 186.957031 27.039062 173.695312 C 28.828125 173.683594 33.359375 173.355469 37.488281 169.917969 C 39 171.070312 43.390625 174.035156 47.996094 173.769531 C 48.265625 176.738281 48.476562 187.90625 37.5 194.570312 Z M 37.5 194.570312 " fill-opacity="1" fill-rule="nonzero"/><path fill="#058402" d="M 44.308594 178.425781 L 43 176.160156 C 42.699219 175.636719 42.027344 175.457031 41.503906 175.761719 L 39.882812 176.699219 L 39.882812 174.824219 C 39.882812 174.21875 39.390625 173.726562 38.785156 173.726562 L 36.167969 173.726562 C 35.566406 173.726562 35.074219 174.21875 35.074219 174.824219 L 35.074219 176.699219 L 33.449219 175.761719 C 32.929688 175.460938 32.257812 175.636719 31.953125 176.160156 L 30.644531 178.425781 C 30.34375 178.949219 30.523438 179.621094 31.046875 179.921875 L 32.667969 180.859375 L 31.046875 181.789062 C 30.792969 181.9375 30.613281 182.171875 30.535156 182.457031 C 30.460938 182.738281 30.5 183.03125 30.644531 183.289062 L 31.957031 185.558594 C 32.257812 186.078125 32.929688 186.253906 33.449219 185.957031 L 35.074219 185.015625 L 35.074219 186.890625 C 35.074219 187.496094 35.566406 187.988281 36.167969 187.988281 L 38.785156 187.988281 C 39.390625 187.988281 39.882812 187.496094 39.882812 186.890625 L 39.882812 185.015625 L 41.503906 185.957031 C 42.027344 186.253906 42.699219 186.078125 43 185.554688 L 44.308594 183.289062 C 44.457031 183.035156 44.496094 182.742188 44.417969 182.457031 C 44.34375 182.175781 44.160156 181.9375 43.90625 181.789062 L 42.289062 180.859375 L 43.910156 179.921875 C 44.433594 179.621094 44.613281 178.949219 44.308594 178.425781 Z M 40.265625 180.160156 C 40.011719 180.304688 39.859375 180.574219 39.859375 180.863281 C 39.859375 181.152344 40.015625 181.417969 40.265625 181.5625 L 42.644531 182.933594 L 41.859375 184.292969 L 39.476562 182.914062 C 39.226562 182.769531 38.917969 182.769531 38.667969 182.914062 C 38.417969 183.058594 38.265625 183.328125 38.265625 183.617188 L 38.265625 186.371094 L 36.691406 186.371094 L 36.691406 183.617188 C 36.691406 183.328125 36.539062 183.058594 36.285156 182.914062 C 36.035156 182.769531 35.726562 182.769531 35.476562 182.914062 L 33.09375 184.292969 L 32.308594 182.933594 L 34.691406 181.5625 C 34.941406 181.417969 35.097656 181.152344 35.097656 180.863281 C 35.097656 180.574219 34.941406 180.304688 34.691406 180.160156 L 32.308594 178.785156 L 33.09375 177.421875 L 35.476562 178.800781 C 35.726562 178.945312 36.039062 178.945312 36.285156 178.800781 C 36.539062 178.65625 36.691406 178.386719 36.691406 178.097656 L 36.691406 175.34375 L 38.265625 175.34375 L 38.265625 178.097656 C 38.265625 178.386719 38.417969 178.65625 38.667969 178.800781 C 38.917969 178.945312 39.226562 178.945312 39.476562 178.800781 L 41.863281 177.421875 L 42.648438 178.785156 Z M 40.265625 180.160156 " fill-opacity="1" fill-rule="nonzero"/><g fill="#058402" fill-opacity="1"><g transform="translate(69.46787, 199.771232)"><g><path d="M 7.476562 0 L 11.28125 0 L 13.941406 -16.828125 L 22.3125 -16.828125 L 22.816406 -19.851562 L 2.238281 -19.851562 L 1.734375 -16.828125 L 10.136719 -16.828125 Z M 7.476562 0 "/></g></g></g><g fill="#058402" fill-opacity="1"><g transform="translate(90.465008, 199.771232)"><g><path d="M 7.195312 0.503906 C 10.640625 0.503906 13.550781 -0.867188 15.175781 -3.191406 L 15.203125 -3.191406 L 15.0625 0 L 18.113281 0 L 20.355469 -14.25 L 16.910156 -14.25 L 15.875 -7.671875 C 15.285156 -4.199219 12.542969 -2.042969 8.625 -2.042969 C 5.515625 -2.042969 3.917969 -3.667969 4.367188 -6.523438 L 5.597656 -14.25 L 2.128906 -14.25 L 0.867188 -6.1875 C 0.195312 -2.042969 2.574219 0.503906 7.195312 0.503906 Z M 7.195312 0.503906 "/></g></g></g><g fill="#058402" fill-opacity="1"><g transform="translate(110.846224, 199.771232)"><g><path d="M 9.492188 0.53125 C 12.320312 0.53125 14.980469 -0.8125 16.460938 -2.996094 L 15.035156 -4.871094 C 14 -3.246094 12.179688 -2.128906 10.304688 -2.128906 C 8.289062 -2.128906 7.308594 -3.277344 7.617188 -5.292969 L 8.679688 -11.757812 L 17.132812 -11.757812 L 17.527344 -14.25 L 9.042969 -14.25 L 9.828125 -19.179688 L 6.242188 -18.476562 L 5.570312 -14.25 L 1.203125 -14.25 L 0.8125 -11.757812 L 5.179688 -11.757812 L 4.085938 -4.730469 C 3.554688 -1.457031 5.570312 0.53125 9.492188 0.53125 Z M 9.492188 0.53125 "/></g></g></g><g fill="#058402" fill-opacity="1"><g transform="translate(128.287843, 199.771232)"><g><path d="M 10.386719 0.53125 C 14.054688 0.53125 17.777344 -0.726562 19.90625 -2.546875 L 18.644531 -4.507812 C 16.964844 -3.109375 13.832031 -2.042969 10.75 -2.042969 C 7.222656 -2.042969 4.394531 -3.5 4.339844 -5.992188 L 19.765625 -5.992188 C 20.019531 -6.550781 20.15625 -7.417969 20.15625 -8.230469 C 20.15625 -12.09375 16.769531 -14.78125 11.535156 -14.78125 C 5.933594 -14.78125 0.699219 -11.394531 0.699219 -6.242188 C 0.699219 -2.238281 4.5625 0.53125 10.386719 0.53125 Z M 4.648438 -8.0625 C 5.347656 -10.75 8.089844 -12.347656 11.449219 -12.347656 C 14.363281 -12.347656 16.996094 -10.835938 16.6875 -8.089844 Z M 4.648438 -8.0625 "/></g></g></g><g fill="#058402" fill-opacity="1"><g transform="translate(149.732914, 199.771232)"><g><path d="M 0.0273438 0 L 3.472656 0 L 6.746094 -20.691406 L 3.304688 -20.691406 Z M 0.0273438 0 "/></g></g></g><g fill="#058402" fill-opacity="1"><g transform="translate(155.500129, 199.771232)"><g><path d="M 8.792969 0.53125 C 12.179688 0.53125 15.34375 -0.925781 16.855469 -3.246094 L 16.882812 -3.246094 L 16.769531 0 L 19.765625 0 L 22.007812 -14.25 L 18.980469 -14.25 L 18.003906 -10.945312 L 17.972656 -10.945312 C 17.164062 -13.242188 14.445312 -14.753906 10.976562 -14.753906 C 5.347656 -14.753906 0.644531 -11.226562 0.644531 -5.90625 C 0.644531 -2.015625 3.78125 0.53125 8.792969 0.53125 Z M 9.996094 -2.128906 C 6.355469 -2.128906 4.144531 -3.75 4.144531 -6.355469 C 4.144531 -9.855469 7.617188 -12.09375 11.757812 -12.09375 C 15.34375 -12.09375 17.609375 -10.441406 17.609375 -7.953125 C 17.609375 -4.480469 14.054688 -2.128906 9.996094 -2.128906 Z M 9.996094 -2.128906 "/></g></g></g><g fill="#058402" fill-opacity="1"><g transform="translate(177.533129, 199.771232)"><g><path d="M 1.148438 -6.242188 L 12.429688 -6.242188 L 12.824219 -8.652344 L 1.539062 -8.652344 Z M 1.148438 -6.242188 "/></g></g></g><g fill="#058402" fill-opacity="1"><g transform="translate(191.391237, 199.771232)"><g><path d="M 0.0273438 0 L 3.472656 0 L 6.746094 -20.691406 L 3.304688 -20.691406 Z M 0.0273438 0 "/></g></g></g><g fill="#058402" fill-opacity="1"><g transform="translate(197.158452, 199.771232)"><g><path d="M 10.386719 0.53125 C 14.054688 0.53125 17.777344 -0.726562 19.90625 -2.546875 L 18.644531 -4.507812 C 16.964844 -3.109375 13.832031 -2.042969 10.75 -2.042969 C 7.222656 -2.042969 4.394531 -3.5 4.339844 -5.992188 L 19.765625 -5.992188 C 20.019531 -6.550781 20.15625 -7.417969 20.15625 -8.230469 C 20.15625 -12.09375 16.769531 -14.78125 11.535156 -14.78125 C 5.933594 -14.78125 0.699219 -11.394531 0.699219 -6.242188 C 0.699219 -2.238281 4.5625 0.53125 10.386719 0.53125 Z M 4.648438 -8.0625 C 5.347656 -10.75 8.089844 -12.347656 11.449219 -12.347656 C 14.363281 -12.347656 16.996094 -10.835938 16.6875 -8.089844 Z M 4.648438 -8.0625 "/></g></g></g><g fill="#058402" fill-opacity="1"><g transform="translate(218.603523, 199.771232)"><g><path d="M 7.363281 6.410156 C 14.082031 6.410156 18.8125 3.414062 19.597656 -1.566406 L 21.585938 -14.25 L 18.589844 -14.25 L 17.582031 -11.003906 L 17.554688 -11.003906 C 16.796875 -13.214844 14.109375 -14.753906 10.808594 -14.753906 C 5.234375 -14.753906 0.726562 -11.199219 0.726562 -5.992188 C 0.726562 -2.15625 3.75 0.308594 8.59375 0.308594 C 11.757812 0.308594 14.867188 -0.894531 16.324219 -2.828125 L 16.351562 -2.828125 L 16.125 -1.679688 C 15.511719 1.652344 12.261719 3.722656 7.449219 3.722656 C 4.453125 3.722656 1.511719 2.800781 -0.222656 1.316406 L -2.101562 3.722656 C -0.253906 5.347656 3.191406 6.410156 7.363281 6.410156 Z M 9.800781 -2.128906 C 6.382812 -2.128906 4.199219 -3.808594 4.199219 -6.382812 C 4.199219 -9.714844 7.390625 -12.152344 11.589844 -12.152344 C 15.035156 -12.152344 17.21875 -10.5 17.21875 -7.953125 C 17.21875 -4.507812 13.804688 -2.128906 9.800781 -2.128906 Z M 9.800781 -2.128906 "/></g></g></g><g fill="#058402" fill-opacity="1"><g transform="translate(240.244574, 199.771232)"><g><path d="M 8.792969 0.53125 C 12.179688 0.53125 15.34375 -0.925781 16.855469 -3.246094 L 16.882812 -3.246094 L 16.769531 0 L 19.765625 0 L 22.007812 -14.25 L 18.980469 -14.25 L 18.003906 -10.945312 L 17.972656 -10.945312 C 17.164062 -13.242188 14.445312 -14.753906 10.976562 -14.753906 C 5.347656 -14.753906 0.644531 -11.226562 0.644531 -5.90625 C 0.644531 -2.015625 3.78125 0.53125 8.792969 0.53125 Z M 9.996094 -2.128906 C 6.355469 -2.128906 4.144531 -3.75 4.144531 -6.355469 C 4.144531 -9.855469 7.617188 -12.09375 11.757812 -12.09375 C 15.34375 -12.09375 17.609375 -10.441406 17.609375 -7.953125 C 17.609375 -4.480469 14.054688 -2.128906 9.996094 -2.128906 Z M 9.996094 -2.128906 "/></g></g></g><g fill="#058402" fill-opacity="1"><g transform="translate(262.277573, 199.771232)"><g><path d="M 0.0273438 0 L 3.472656 0 L 6.746094 -20.691406 L 3.304688 -20.691406 Z M 0.0273438 0 "/></g></g></g><g fill="#058402" fill-opacity="1"><g transform="translate(268.044777, 199.771232)"><g><path d="M 10.386719 0.53125 C 14.054688 0.53125 17.777344 -0.726562 19.90625 -2.546875 L 18.644531 -4.507812 C 16.964844 -3.109375 13.832031 -2.042969 10.75 -2.042969 C 7.222656 -2.042969 4.394531 -3.5 4.339844 -5.992188 L 19.765625 -5.992188 C 20.019531 -6.550781 20.15625 -7.417969 20.15625 -8.230469 C 20.15625 -12.09375 16.769531 -14.78125 11.535156 -14.78125 C 5.933594 -14.78125 0.699219 -11.394531 0.699219 -6.242188 C 0.699219 -2.238281 4.5625 0.53125 10.386719 0.53125 Z M 4.648438 -8.0625 C 5.347656 -10.75 8.089844 -12.347656 11.449219 -12.347656 C 14.363281 -12.347656 16.996094 -10.835938 16.6875 -8.089844 Z M 4.648438 -8.0625 "/></g></g></g><g fill="#058402" fill-opacity="1"><g transform="translate(289.48986, 199.771232)"><g><path d="M 2.015625 0.335938 C 3.332031 0.335938 4.367188 -0.558594 4.367188 -1.847656 C 4.367188 -2.96875 3.554688 -3.75 2.324219 -3.75 C 1.007812 -3.75 0 -2.882812 0 -1.539062 C 0 -0.449219 0.785156 0.335938 2.015625 0.335938 Z M 2.015625 0.335938 "/></g></g></g><g fill="#058402" fill-opacity="1"><g transform="translate(295.537032, 199.771232)"><g><path d="M 13.1875 -14.753906 C 9.742188 -14.753906 6.832031 -13.382812 5.207031 -11.058594 L 5.179688 -11.058594 L 5.320312 -14.25 L 2.269531 -14.25 L 0.0273438 0 L 3.472656 0 L 4.507812 -6.578125 C 5.09375 -10.050781 7.839844 -12.207031 11.757812 -12.207031 C 14.867188 -12.207031 16.460938 -10.582031 16.015625 -7.726562 L 14.78125 0 L 18.253906 0 L 19.515625 -8.0625 C 20.1875 -12.207031 17.804688 -14.753906 13.1875 -14.753906 Z M 13.1875 -14.753906 "/></g></g></g><g fill="#058402" fill-opacity="1"><g transform="translate(315.918248, 199.771232)"><g><path d="M 10.386719 0.53125 C 14.054688 0.53125 17.777344 -0.726562 19.90625 -2.546875 L 18.644531 -4.507812 C 16.964844 -3.109375 13.832031 -2.042969 10.75 -2.042969 C 7.222656 -2.042969 4.394531 -3.5 4.339844 -5.992188 L 19.765625 -5.992188 C 20.019531 -6.550781 20.15625 -7.417969 20.15625 -8.230469 C 20.15625 -12.09375 16.769531 -14.78125 11.535156 -14.78125 C 5.933594 -14.78125 0.699219 -11.394531 0.699219 -6.242188 C 0.699219 -2.238281 4.5625 0.53125 10.386719 0.53125 Z M 4.648438 -8.0625 C 5.347656 -10.75 8.089844 -12.347656 11.449219 -12.347656 C 14.363281 -12.347656 16.996094 -10.835938 16.6875 -8.089844 Z M 4.648438 -8.0625 "/></g></g></g><g fill="#058402" fill-opacity="1"><g transform="translate(337.363331, 199.771232)"><g><path d="M 9.492188 0.53125 C 12.320312 0.53125 14.980469 -0.8125 16.460938 -2.996094 L 15.035156 -4.871094 C 14 -3.246094 12.179688 -2.128906 10.304688 -2.128906 C 8.289062 -2.128906 7.308594 -3.277344 7.617188 -5.292969 L 8.679688 -11.757812 L 17.132812 -11.757812 L 17.527344 -14.25 L 9.042969 -14.25 L 9.828125 -19.179688 L 6.242188 -18.476562 L 5.570312 -14.25 L 1.203125 -14.25 L 0.8125 -11.757812 L 5.179688 -11.757812 L 4.085938 -4.730469 C 3.554688 -1.457031 5.570312 0.53125 9.492188 0.53125 Z M 9.492188 0.53125 "/></g></g></g></svg>